<?xml version="1.0" encoding="UTF-8"?>
<svg id="Layer_2" data-name="Layer 2" xmlns="http://www.w3.org/2000/svg" viewBox="0 0 459.98 112.58">
  <defs>
    <style>
      .cls-1 {
        fill: none;
        stroke: #fff;
        stroke-miterlimit: 10;
        stroke-width: 3px;
      }

      .cls-2 {
        fill: #ec1c23;
      }

      .cls-3 {
        fill: #fff;
      }
    </style>
  </defs>
  <g id="Combo">
    <g>
      <path d="m133.57,17c0-2.4,1.47-3.84,3.95-3.84h.13c2.49,0,3.95,1.44,3.95,3.84v23.29c0,4.32,1.85,6.06,5.93,6.06,1.72,0,3.63-.36,6.18-.84l1.08-.12c2.1,0,3.63,1.44,3.63,3.6,0,1.86-1.08,3.06-3.25,3.6-2.55.72-4.52.96-7.33.96-9.49,0-14.27-4.32-14.27-12.97v-23.59Zm41.61,46.76v-27.07h-5.54v26.29c0,2.4-1.47,3.84-3.95,3.84s-4.08-1.44-4.08-3.84V14.54c0-2.4,1.59-3.84,4.08-3.84s3.95,1.44,3.95,3.84v14.95h5.54v-15.55c0-2.4,1.59-3.84,4.08-3.84s3.95,1.44,3.95,3.84v49.82c0,2.4-1.47,3.84-3.95,3.84s-4.08-1.44-4.08-3.84Z"/>
      <path d="m190.53,38.55h19.24v-4.08c0-2.22,1.66-3.6,4.14-3.6h.32c2.49,0,4.14,1.38,4.14,3.6v4.08h19.31c2.61,0,4.14,1.38,4.14,3.54s-1.59,3.66-4.14,3.66h-47.15c-2.55,0-4.14-1.5-4.14-3.66s1.53-3.54,4.14-3.54Zm4.01-5.22c-.45-.66-.7-1.44-.7-2.22,0-1.5.83-2.94,2.29-3.48,9.24-3.78,13.95-7.5,14.15-12.97.06-2.4,1.66-3.84,4.14-3.84h.25c2.55,0,4.14,1.44,4.14,3.84,0,1.92-.32,3.72-1.02,5.4,5.1,2.1,11.09,5.1,14.91,7.68,1.21.66,1.78,1.62,1.78,2.88,0,.9-.32,1.74-.96,2.46-.76.9-1.72,1.38-2.8,1.38-.7,0-1.53-.24-2.36-.78-4.08-2.58-10.9-6.12-14.66-7.62-3.12,3.12-7.77,5.82-13.89,8.16-.89.3-1.66.48-2.29.48-1.27,0-2.29-.48-2.99-1.38Zm.64,19.39c0-2.4,1.53-3.84,4.01-3.84,2.74,0,4.27,1.44,4.27,3.84v1.02c0,4.8,3.25,6.72,11.66,6.72,4.52,0,9.75-.78,13.38-2.16.7-.18,1.27-.3,1.66-.3,1.59,0,2.87.9,3.38,2.52.13.42.19.78.19,1.14,0,1.56-.96,2.7-2.87,3.48-4.65,1.62-10.32,2.52-15.74,2.52-13.06,0-19.94-4.62-19.94-13.69v-1.26Z"/>
      <path d="m244.24,26.07c0-8.22,6.31-14.83,16.31-14.83s16.25,6.6,16.25,14.83-6.75,14.77-16.25,14.77-16.31-6.48-16.31-14.77Zm16.31,7.56c4.59,0,7.96-3,7.96-7.56s-3.38-7.62-7.96-7.62-8.03,3.12-8.03,7.62,3.38,7.56,8.03,7.56Zm-7.58,16.51c0-2.22,1.66-3.6,4.14-3.6h.32c2.49,0,4.14,1.38,4.14,3.6v2.16c0,5.46,3.76,8.1,11.72,8.1,4.27,0,7.71-.6,11.79-1.86.7-.24,1.34-.36,1.91-.36,2.1,0,3.7,1.38,3.7,3.72,0,1.62-1.08,2.76-3.31,3.54-4.14,1.44-9.24,2.16-15.29,2.16-12.55,0-19.12-5.4-19.12-15.07v-2.4Zm28.55-36.44c0-2.22,1.66-3.6,4.14-3.6h.32c2.49,0,4.14,1.38,4.14,3.6v8.7h4.91c2.49,0,3.95,1.38,3.95,3.6s-1.47,3.6-3.95,3.6h-4.91v16.15c0,2.22-1.66,3.6-4.14,3.6h-.32c-2.49,0-4.14-1.38-4.14-3.6V13.7Z"/>
      <path d="m301.46,50.14h10.64c6.82,0,15.29-.6,20.33-1.74.51-.12.96-.18,1.4-.18,2.23,0,3.63,1.38,3.63,3.54,0,1.74-1.15,3.06-2.99,3.54-5.61,1.38-14.4,2.04-22.3,2.04h-10.64c-2.49,0-3.95-1.26-4.01-3.48,0-2.22,1.59-3.72,3.95-3.72Zm-1.78-23.65c0-8.52,6.56-15.01,16.25-15.01s16.31,6.36,16.31,15.01-6.75,14.83-16.31,14.83-16.25-6.06-16.25-14.83Zm16.38,7.62c4.59,0,7.9-3.3,7.9-7.68s-3.25-7.74-7.9-7.74-8.16,3.18-8.16,7.74,3.38,7.68,8.16,7.68Zm24.34-20.41c0-2.22,1.66-3.6,4.14-3.6h.32c2.49,0,4.14,1.38,4.14,3.6v50.3c0,2.22-1.66,3.6-4.14,3.6h-.32c-2.49,0-4.14-1.38-4.14-3.6V13.7Z"/>
      <path d="m353.06,57.94c0-2.22,1.47-3.6,3.95-3.6h8.22v-19.21c0-2.4,1.72-3.84,4.27-3.84,2.74,0,4.33,1.44,4.33,3.84v19.21h5.03v-19.21c0-2.4,1.72-3.84,4.27-3.84,2.74,0,4.33,1.44,4.33,3.84v19.21h17.08c2.49,0,3.95,1.38,3.95,3.6s-1.47,3.6-3.95,3.6h-47.53c-2.49,0-3.95-1.38-3.95-3.6Zm12.17-45.38h29.76c3.06,0,5.22,2.04,5.22,5.1,0,12.19-.57,18.37-2.42,24.13-.57,1.62-1.91,2.52-3.63,2.52-.76,0-1.47-.12-2.04-.42-1.53-.6-2.29-1.8-2.29-3.54,0-.48.06-.96.19-1.44,1.21-4.86,1.53-9.97,1.53-18.55,0-.42-.19-.6-.64-.6h-25.68c-2.49,0-3.95-1.38-3.95-3.6s1.47-3.6,3.95-3.6Z"/>
      <path d="m408.62,55.72c0-2.22,1.59-3.72,3.95-3.72h11.6v-6.12c-5.93-1.62-10.13-6.36-10.13-11.82,0-2.16.57-4.14,1.72-6h-1.78c-2.36,0-3.95-1.38-3.95-3.54s1.47-3.66,3.95-3.66h28.67c2.49,0,3.95,1.44,3.95,3.66s-1.59,3.54-3.95,3.54h-1.4c1.08,1.86,1.66,3.9,1.66,6,0,5.46-4.21,10.2-10.13,11.82v5.76c4.46-.3,8.03-.78,10.77-1.38.51-.12.96-.18,1.4-.18,2.23,0,3.63,1.38,3.63,3.54,0,1.74-1.15,3.06-2.99,3.54-5.61,1.38-14.4,2.04-22.3,2.04h-10.64c-2.49,0-3.95-1.26-4.01-3.48Zm7.01-44.78c.7-.9,1.72-1.38,2.93-1.38.7,0,1.34.18,2.04.48l.89.42c.57.3,1.85.42,3.82.42h12.04c2.36,0,3.89,1.5,3.89,3.66s-1.59,3.54-3.95,3.54h-10.96c-4.27,0-6.88-.3-8.98-1.5l-.76-.42c-1.08-.66-1.66-1.8-1.66-3.06,0-.9.25-1.62.7-2.16Zm12.87,28.27c3.57,0,6.12-2.1,6.12-5.22,0-2.88-2.61-5.22-6.12-5.22-3.76,0-6.18,2.16-6.18,5.22s2.55,5.22,6.18,5.22Zm22.87-25.51c0-2.22,1.66-3.6,4.14-3.6h.32c2.49,0,4.14,1.38,4.14,3.6v50.3c0,2.22-1.66,3.6-4.14,3.6h-.32c-2.49,0-4.14-1.38-4.14-3.6V13.7Z"/>
    </g>
    <g>
      <path d="m200.83,105.48v-18.84c0-1.16.64-1.89,1.55-1.89h4.72c3.73,0,6.16,2.76,6.16,6.75s-2.33,6.59-6.16,6.59h-4.12v7.38c0,.86-.38,1.35-1.06,1.35s-1.09-.49-1.09-1.35Zm6.28-9.81c2.39,0,3.95-1.65,3.95-4.22,0-2.7-1.53-4.27-3.95-4.27h-3.79c-.18,0-.33.19-.33.41v8.08h4.12Z"/>
      <path d="m214.28,105.48v-12.48c0-.86.38-1.35,1.09-1.35s1.06.49,1.06,1.35v.62c.82-1.32,2.02-2.08,3.35-2.08,1.04,0,1.84.22,2.39.62.31.24.47.57.47.97,0,.27-.04.49-.16.68-.16.35-.4.54-.73.54-.18,0-.35-.05-.53-.16-.38-.19-.84-.3-1.42-.3-1.86,0-3.37,2.05-3.37,5.03v6.57c0,.86-.38,1.35-1.06,1.35s-1.09-.49-1.09-1.35Z"/>
      <path d="m226.45,105.83c-1.93-1.41-3.1-3.86-3.1-6.65,0-1.38.29-2.67.84-3.84,1.13-2.38,3.13-3.81,5.41-3.81,1.13,0,2.2.35,3.15,1.03,1.88,1.41,3.08,3.89,3.08,6.62,0,1.41-.27,2.68-.82,3.84-1.13,2.38-3.13,3.84-5.41,3.84-1.13,0-2.2-.35-3.15-1.03Zm3.15-1.3c2.37,0,4.06-2.3,4.06-5.32s-1.69-5.32-4.06-5.32-4.08,2.16-4.08,5.32,1.8,5.32,4.08,5.32Z"/>
      <path d="m240.98,105.91l-4.55-12.43c-.07-.24-.11-.43-.11-.57,0-.67.49-1.24,1.18-1.24.42,0,.75.3.98.92l3.64,10.43,3.59-10.43c.22-.62.55-.92,1-.92.11,0,.24.03.42.11.49.24.73.62.73,1.13,0,.14-.04.32-.11.57l-4.5,12.43c-.22.62-.6.92-1.13.92s-.91-.3-1.13-.92Z"/>
      <path d="m248.34,99.21c0-4.73,2.22-7.67,5.7-7.67,1.09,0,2.08.32,2.97.97,1.77,1.32,2.77,3.78,2.68,6.7-.02.76-.4,1.19-1.11,1.19h-7.98c.33,2.67,1.75,4.16,3.79,4.16,1.13,0,2.06-.35,2.82-1.05.24-.24.51-.35.8-.35.24,0,.47.11.64.32s.27.49.27.78c0,.38-.13.73-.4,1.03-.82.89-2.48,1.57-4.15,1.57-3.61,0-6.03-2.92-6.03-7.65Zm9.09-1.13c-.07-2.46-1.49-4.19-3.37-4.19s-3.15,1.46-3.48,4.19h6.85Z"/>
      <path d="m265.07,105.48v-12.48c0-.86.38-1.35,1.09-1.35s1.06.49,1.06,1.35v.59c.82-1.38,1.84-2.05,3.1-2.05,1.6,0,2.86.81,3.64,2.35.89-1.51,2.26-2.35,3.79-2.35,2.82,0,4.66,2.51,4.68,6.65v7.3c0,.86-.38,1.35-1.06,1.35s-1.09-.49-1.09-1.35v-7.21c0-2.95-.91-4.38-2.53-4.38s-2.93,1.73-2.93,4.51v7.08c0,.86-.38,1.35-1.06,1.35s-1.09-.49-1.09-1.35v-7.21c0-2.95-.91-4.38-2.53-4.38s-2.93,1.84-2.93,4.78v6.81c0,.86-.38,1.35-1.06,1.35s-1.09-.49-1.09-1.35Z"/>
      <path d="m283.25,110.99c-.27-.4-.4-.76-.4-1.08,0-.24.09-.51.27-.76.22-.27.47-.4.73-.4.29,0,.51.13.71.4.38.51.8.78,1.22.78,1.04,0,1.57-1.49,2.42-4.08l-4.86-12.38c-.07-.24-.11-.43-.11-.57,0-.51.29-.95.75-1.13.18-.08.31-.11.42-.11.42,0,.75.3.98.92l3.9,10.43,3.33-10.43c.18-.57.55-.92,1-.92.11,0,.24.03.42.11.49.24.73.62.73,1.13,0,.14-.04.32-.11.57l-4.44,12.89c-.47,1.43-.89,2.59-1.31,3.49-.82,1.7-1.82,2.43-3.26,2.43-.86,0-1.8-.46-2.39-1.3Z"/>
      <path d="m300.07,103.48v-17.78c0-.86.38-1.35,1.09-1.35s1.06.49,1.06,1.35v17.84c0,.65.22.95.73.95.71,0,1.11.41,1.11,1.19s-.4,1.19-1.11,1.19c-1.95,0-2.88-1.03-2.88-3.38Z"/>
      <path d="m305.85,85.13c.8,0,1.42.76,1.42,1.7s-.62,1.68-1.42,1.68-1.42-.73-1.42-1.68.62-1.7,1.42-1.7Zm-1.09,20.35v-12.48c0-.86.38-1.35,1.09-1.35s1.06.49,1.06,1.35v12.48c0,.86-.38,1.35-1.06,1.35s-1.09-.49-1.09-1.35Z"/>
      <path d="m310.42,105.48v-11.35h-1.22c-.71,0-1.11-.4-1.11-1.19s.4-1.19,1.11-1.19h1.22v-.73c0-4.57,1.57-6.73,4.48-6.73,1.35,0,2.55.59,3.35,1.57.29.35.42.7.42,1.11,0,.3-.09.54-.24.73-.22.27-.47.41-.71.41-.27,0-.51-.14-.73-.41-.64-.76-1.22-1.05-2.08-1.05-1.57,0-2.33,1.3-2.33,4.54v.57h4.32c.71,0,1.11.43,1.11,1.19s-.4,1.19-1.11,1.19h-4.32v11.35c0,.86-.38,1.35-1.09,1.35s-1.06-.49-1.06-1.35Z"/>
      <path d="m318.94,99.21c0-4.73,2.22-7.67,5.7-7.67,1.09,0,2.08.32,2.97.97,1.77,1.32,2.77,3.78,2.68,6.7-.02.76-.4,1.19-1.11,1.19h-7.98c.33,2.67,1.75,4.16,3.79,4.16,1.13,0,2.06-.35,2.82-1.05.24-.24.51-.35.8-.35.24,0,.47.11.64.32s.27.49.27.78c0,.38-.13.73-.4,1.03-.82.89-2.48,1.57-4.15,1.57-3.61,0-6.03-2.92-6.03-7.65Zm9.09-1.13c-.07-2.46-1.49-4.19-3.37-4.19s-3.15,1.46-3.48,4.19h6.85Z"/>
      <path d="m337.26,105.48v-11.35h-1.22c-.71,0-1.11-.4-1.11-1.19s.4-1.19,1.11-1.19h1.22v-.73c0-4.57,1.57-6.73,4.48-6.73,1.35,0,2.55.59,3.35,1.57.29.35.42.7.42,1.11,0,.3-.09.54-.24.73-.22.27-.47.41-.71.41-.27,0-.51-.14-.73-.41-.64-.76-1.22-1.05-2.08-1.05-1.57,0-2.33,1.3-2.33,4.54v.57h4.32c.71,0,1.11.43,1.11,1.19s-.4,1.19-1.11,1.19h-4.32v11.35c0,.86-.38,1.35-1.09,1.35s-1.06-.49-1.06-1.35Z"/>
      <path d="m346.06,105.48v-12.48c0-.86.38-1.35,1.09-1.35s1.06.49,1.06,1.35v.62c.82-1.32,2.02-2.08,3.35-2.08,1.04,0,1.84.22,2.39.62.31.24.47.57.47.97,0,.27-.04.49-.16.68-.16.35-.4.54-.73.54-.18,0-.35-.05-.53-.16-.38-.19-.84-.3-1.42-.3-1.86,0-3.37,2.05-3.37,5.03v6.57c0,.86-.38,1.35-1.06,1.35s-1.09-.49-1.09-1.35Z"/>
      <path d="m358.24,105.83c-1.93-1.41-3.1-3.86-3.1-6.65,0-1.38.29-2.67.84-3.84,1.13-2.38,3.13-3.81,5.41-3.81,1.13,0,2.2.35,3.15,1.03,1.88,1.41,3.08,3.89,3.08,6.62,0,1.41-.27,2.68-.82,3.84-1.13,2.38-3.13,3.84-5.41,3.84-1.13,0-2.2-.35-3.15-1.03Zm3.15-1.3c2.37,0,4.06-2.3,4.06-5.32s-1.69-5.32-4.06-5.32-4.08,2.16-4.08,5.32,1.8,5.32,4.08,5.32Z"/>
      <path d="m369.06,105.48v-12.48c0-.86.38-1.35,1.09-1.35s1.06.49,1.06,1.35v.59c.82-1.38,1.84-2.05,3.1-2.05,1.6,0,2.86.81,3.64,2.35.89-1.51,2.26-2.35,3.79-2.35,2.82,0,4.66,2.51,4.68,6.65v7.3c0,.86-.38,1.35-1.06,1.35s-1.09-.49-1.09-1.35v-7.21c0-2.95-.91-4.38-2.53-4.38s-2.93,1.73-2.93,4.51v7.08c0,.86-.38,1.35-1.06,1.35s-1.09-.49-1.09-1.35v-7.21c0-2.95-.91-4.38-2.53-4.38s-2.93,1.84-2.93,4.78v6.81c0,.86-.38,1.35-1.06,1.35s-1.09-.49-1.09-1.35Z"/>
      <path d="m395.68,105.48c-2.31-1.87-3.64-5.38-3.64-9.7,0-2.16.33-4.11.98-5.84,1.31-3.46,3.75-5.43,6.74-5.43,1.88,0,3.7.76,4.68,1.87.24.3.35.59.35.95,0,.24-.07.51-.22.76-.2.3-.44.46-.73.46-.22,0-.42-.08-.62-.27-1.13-.95-2.15-1.41-3.46-1.41-3.19,0-5.54,3.35-5.54,8.86,0,1.76.22,3.3.69,4.6.91,2.67,2.62,4.22,4.75,4.22,1.24,0,2.57-.43,3.22-1.08v-6.46c0-.22-.16-.41-.33-.41h-2.17c-.71,0-1.11-.4-1.11-1.19s.4-1.24,1.11-1.24h3.1c.95,0,1.55.73,1.55,1.89v7.3c0,.76-.22,1.27-.67,1.73-1.06,1.08-2.91,1.81-4.7,1.81-1.51,0-2.84-.46-3.97-1.41Z"/>
      <path d="m409.5,105.83c-1.93-1.41-3.1-3.86-3.1-6.65,0-1.38.29-2.67.84-3.84,1.13-2.38,3.13-3.81,5.41-3.81,1.13,0,2.2.35,3.15,1.03,1.88,1.41,3.08,3.89,3.08,6.62,0,1.41-.27,2.68-.82,3.84-1.13,2.38-3.13,3.84-5.41,3.84-1.13,0-2.2-.35-3.15-1.03Zm3.15-1.3c2.37,0,4.06-2.3,4.06-5.32s-1.69-5.32-4.06-5.32-4.08,2.16-4.08,5.32,1.8,5.32,4.08,5.32Z"/>
      <path d="m423,105.83c-1.86-1.38-2.97-3.84-2.97-6.65,0-1.41.27-2.67.8-3.84,1.06-2.38,3.02-3.81,5.21-3.81,1.57,0,2.88.7,3.88,2.11v-7.94c0-.86.38-1.35,1.09-1.35s1.06.49,1.06,1.35v19.78c0,.86-.38,1.35-1.06,1.35s-1.09-.49-1.09-1.35v-.76c-1,1.43-2.28,2.13-3.88,2.13-1.11,0-2.13-.35-3.04-1.03Zm3.04-1.3c2.15,0,3.86-2.19,3.86-5.32s-1.71-5.32-3.86-5.32-3.84,2.24-3.84,5.32,1.62,5.32,3.84,5.32Z"/>
    </g>
  </g>
  <g id="ver0.1">
    <rect class="cls-2" x="36.42" y="0" width="39.74" height="112.58" transform="translate(0 112.58) rotate(-90)"/>
    <rect class="cls-2" x="36.42" width="39.74" height="112.58"/>
    <circle class="cls-1" cx="55.93" cy="56.14" r="25.1"/>
    <polygon class="cls-3" points="70.32 56.25 48.81 43.83 48.81 68.67 70.32 56.25"/>
  </g>
</svg>